<svg width="739" height="281" viewBox="0 0 739 281" fill="none" xmlns="http://www.w3.org/2000/svg">
<g clip-path="url(#clip0_8962_2158)">
<path d="M682.611 50.4041H639.404L606.492 84.2853V132.394L481.504 185.891V69.6744H469.416C469.002 65.0811 466.999 60.7542 463.712 57.4667C460.003 53.7579 454.973 51.6744 449.727 51.6744H419.504V167.715H412.442V132.865H400.07V103.17L375.765 78.8651H367.375L343.07 103.17V132.865H330.07V167.715H316.014V39.2341H225.014V98.8646H187.172L153.444 166.032L153.293 185.756H137.937V159.175H119.937V116.175H93.9365V83.1752H24.9365V202.175H47.9365V219.175H54.9365V275.175H102.459V281H260.564L260.601 273.234H305.07V281H428.07V273.674H430.798V281H715.523V84.2853L682.611 50.4041Z" fill="#E6E6E6"/>
<path d="M331.354 100.929C331.354 79.9162 314.297 62.8596 293.285 62.8596C272.272 62.8596 255.216 79.9162 255.216 100.929C255.216 121.941 272.247 138.998 293.285 138.998C314.297 138.998 331.354 121.941 331.354 100.929Z" fill="#D5D4DB"/>
<path d="M232.585 281H323.134V85.4905H232.585V281Z" fill="#BBBAC0"/>
<path d="M254.188 279.973H334.462V85.4905H254.188V279.973Z" fill="#D5D4DB"/>
<path d="M254.188 89.6005H334.462L303.586 279.972H285.065L254.188 89.6005Z" fill="#DBDADF"/>
<path d="M254.188 99.9013H334.462V88.573H254.188V99.9013Z" fill="#D5D4DB"/>
<path d="M254.188 122.532H334.462V111.204H254.188V122.532Z" fill="#CCCBD0"/>
<path d="M259.557 122.532H329.145L330.969 111.204H257.707L259.531 122.532H259.557Z" fill="#D5D4DA"/>
<path d="M254.188 145.189H334.462V133.86H254.188V145.189Z" fill="#CCCBD0"/>
<path d="M263.23 145.163H325.472L327.296 133.835H261.381L263.205 145.163H263.23Z" fill="#D5D4DA"/>
<path d="M254.188 167.819H334.462V156.491H254.188V167.819Z" fill="#CCCBD0"/>
<path d="M266.904 167.794H321.798L323.622 156.466H265.054L266.878 167.794H266.904Z" fill="#D5D4DA"/>
<path d="M254.188 190.451H334.462V179.122H254.188V190.451Z" fill="#CCCBD0"/>
<path d="M270.577 190.451H318.125L319.949 179.122H268.727L270.551 190.451H270.577Z" fill="#D5D4DA"/>
<path d="M254.188 213.081H334.462V201.753H254.188V213.081Z" fill="#CCCBD0"/>
<path d="M314.452 213.081L316.276 201.753H272.401L274.225 213.081H314.452Z" fill="#D5D4DA"/>
<path d="M254.188 235.738H334.462V224.41H254.188V235.738Z" fill="#CCCBD0"/>
<path d="M277.924 235.712H310.804L312.628 224.384H276.074L277.898 235.712H277.924Z" fill="#D5D4DA"/>
<path d="M254.188 258.369H334.462V247.041H254.188V258.369Z" fill="#CCCBD0"/>
<path d="M281.597 258.369H307.131L308.955 247.041H279.748L281.571 258.369H281.597Z" fill="#D5D4DA"/>
<path d="M254.188 281H334.462V269.672H254.188V281Z" fill="#CCCBD0"/>
<path d="M283.395 269.672L285.065 280.949H303.586L305.255 269.672H283.395Z" fill="#D5D4DA"/>
<path d="M169.415 281.284H254.04V152.298H169.415V281.284Z" fill="#F8B1B2"/>
<path d="M169.415 226.593H254.04V215.232H169.415V226.593Z" fill="#FACACB"/>
<path d="M216.867 191.506H206.537V210.08H216.867V191.506Z" fill="#FACACB"/>
<path d="M194.171 191.506H183.841V210.08H194.171V191.506Z" fill="#FACACB"/>
<path d="M216.867 161.572H206.537V180.146H216.867V161.572Z" fill="#FACACB"/>
<path d="M194.171 161.572H183.841V180.146H194.171V161.572Z" fill="#FACACB"/>
<path d="M238.558 191.506H228.228V210.08H238.558V191.506Z" fill="#FACACB"/>
<path d="M238.558 161.572H228.228V180.146H238.558V161.572Z" fill="#FACACB"/>
<path d="M254.04 214.232H169.415V216.232H254.04V214.232Z" fill="#F48889"/>
<path d="M254.04 185.354H169.415V187.354H254.04V185.354Z" fill="#F48889"/>
<path d="M225.368 142.509C221.71 139.881 217.305 138.464 212.797 138.464C208.289 138.464 203.883 139.855 200.225 142.457C197.752 144.183 194.79 145.085 191.776 145.033H169.441V155.364H254.066V145.033H233.715C230.752 145.059 227.841 144.183 225.394 142.483L225.368 142.509Z" fill="#FACACB"/>
<path d="M203.085 146.089H223.024C220.37 143.436 216.79 141.968 213.054 141.968C209.319 141.968 205.738 143.462 203.085 146.089Z" fill="white"/>
<path d="M227.48 281.361H245.513V232.415H227.48V281.361Z" fill="#FACACB"/>
<path d="M214.611 260.942H201.611V232.942H214.611V260.942ZM203.611 258.942H212.611V234.942H203.611V258.942Z" fill="#FACACB"/>
<path d="M195.883 260.942H182.883V232.942H195.883V260.942ZM184.883 258.942H193.883V234.942H184.883V258.942Z" fill="#FACACB"/>
<path d="M2.2019 276.039H85.6756V140.893H2.2019V276.039Z" fill="#BBBAC0"/>
<path d="M0 276.039H21.1568V140.893H0V276.039Z" fill="#CCCBD0"/>
<path d="M0.00537109 281H97.6075V153.817H0.00537109V281Z" fill="#D5D4DB"/>
<path d="M10.1399 281H33.9789V153.817H10.1399V281Z" fill="#E6E5E8"/>
<path d="M0.0876465 281H10.1398V153.817H0.0876465V281Z" fill="#CCCBD0"/>
<path d="M33.979 174.191H97.5826V172.191H33.979V174.191Z" fill="#CCCBD0"/>
<path d="M10.1399 174.191H33.9789V172.191H10.1399V174.191Z" fill="white"/>
<path d="M0.0878906 174.191H10.1401V172.191H0.0878906V174.191Z" fill="#BBBAC0"/>
<path d="M33.979 198.03H97.5826V196.03H33.979V198.03Z" fill="#CCCBD0"/>
<path d="M10.1399 198.03H33.9789V196.03H10.1399V198.03Z" fill="white"/>
<path d="M0.0876465 198.27H10.1398V195.79H0.0876465V198.27Z" fill="#BBBAC0"/>
<path d="M33.979 221.894H97.5826V219.894H33.979V221.894Z" fill="#CCCBD0"/>
<path d="M10.1399 221.894H33.9789V219.894H10.1399V221.894Z" fill="white"/>
<path d="M0.0876465 221.894H10.1398V219.894H0.0876465V221.894Z" fill="#BBBAC0"/>
<path d="M33.979 245.733H97.5826V243.733H33.979V245.733Z" fill="#CCCBD0"/>
<path d="M10.1399 245.733H33.9789V243.733H10.1399V245.733Z" fill="white"/>
<path d="M0.00537109 245.733H10.1401V243.733H0.00537109V245.733Z" fill="#BBBAC0"/>
<path d="M33.979 269.597H97.5826L97.5826 267.597H33.979V269.597Z" fill="#CCCBD0"/>
<path d="M10.1399 269.597H33.9789V267.597H10.1399V269.597Z" fill="white"/>
<path d="M-0.0773926 269.597H10.1398V267.597H-0.0773926V269.597Z" fill="#BBBAC0"/>
<path d="M687.685 147.894H612.076V160.261H687.685V147.894Z" fill="#D5D4DB"/>
<path d="M709.457 159.232H589.295V281H709.457V159.232Z" fill="#C6C5CD"/>
<path d="M674.239 159.232H668.033V280.769H674.239V159.232Z" fill="#D5D4DB"/>
<path d="M659.733 159.232H653.527V280.769H659.733V159.232Z" fill="#D5D4DB"/>
<path d="M646.261 159.232H640.055V280.769H646.261V159.232Z" fill="#D5D4DB"/>
<path d="M631.754 159.232H625.548V280.769H631.754V159.232Z" fill="#D5D4DB"/>
<path d="M618.282 159.232H612.076V280.769H618.282V159.232Z" fill="#D5D4DB"/>
<path d="M603.801 159.232H597.595V280.769H603.801V159.232Z" fill="#D5D4DB"/>
<path d="M681.479 280.769H687.685V159.232H681.479V280.769Z" fill="#D5D4DB"/>
<path d="M695.986 280.769H702.192V159.232H695.986V280.769Z" fill="#D5D4DB"/>
<path d="M478.446 281H570.825V37.0086H478.446V281Z" fill="#D5D4DB"/>
<path d="M539.703 281H570.85V37.0086H539.703V281Z" fill="#C6C5CD"/>
<path d="M485.727 41.1637H535.558V29.7823H485.727V41.1637Z" fill="#D5D4DB"/>
<path d="M531.385 5.98688V40.4924H535.531V5.98688H531.385Z" fill="#D5D4DB"/>
<path d="M478.446 43.2026H570.825V37.0086H478.446V43.2026Z" fill="#D5D4DB"/>
<path d="M478.446 69.5142H570.825V65.5142H478.446V69.5142Z" fill="#BBBAC0"/>
<path d="M478.446 94.3157H570.825V90.3157H478.446V94.3157Z" fill="#BBBAC0"/>
<path d="M478.446 118.085H570.825V114.085H478.446V118.085Z" fill="#BBBAC0"/>
<path d="M478.446 142.913H570.825V138.913H478.446V142.913Z" fill="#BBBAC0"/>
<path d="M478.446 166.682H570.825V162.682H478.446V166.682Z" fill="#BBBAC0"/>
<path d="M478.446 191.51H570.825V187.51H478.446V191.51Z" fill="#BBBAC0"/>
<path d="M478.446 215.279H570.825V211.279H478.446V215.279Z" fill="#BBBAC0"/>
<path d="M478.446 240.081H570.825V236.081H478.446V240.081Z" fill="#BBBAC0"/>
<path d="M478.446 263.876H570.825V259.876H478.446V263.876Z" fill="#BBBAC0"/>
<path d="M213.197 267.861C211.487 268.587 209.906 269.623 208.584 270.945C207.262 272.267 206.226 273.822 205.5 275.558C204.775 277.268 204.412 279.134 204.412 281H232.815C232.815 277.242 231.312 273.614 228.668 270.971C225.999 268.302 222.397 266.824 218.639 266.824C216.773 266.824 214.933 267.187 213.197 267.913V267.861Z" fill="#B0ADB6"/>
<path d="M353.509 272.909C352.45 273.363 351.467 273.993 350.66 274.799C349.854 275.606 349.198 276.589 348.77 277.648C348.316 278.706 348.089 279.866 348.089 281H365.633C365.633 278.681 364.7 276.438 363.062 274.799C361.423 273.161 359.18 272.228 356.861 272.228C355.701 272.228 354.567 272.455 353.509 272.884V272.909Z" fill="#B0ADB6"/>
<path d="M381.642 267.812C379.925 268.541 378.338 269.581 377.012 270.908C375.685 272.234 374.645 273.795 373.916 275.538C373.188 277.254 372.824 279.127 372.824 281H401.332C401.332 277.228 399.823 273.587 397.17 270.934C394.491 268.255 390.876 266.772 387.104 266.772C385.231 266.772 383.384 267.136 381.642 267.864V267.812Z" fill="#B0ADB6"/>
<path d="M703.775 275.179H698.713V279.228H703.775V275.179Z" fill="white"/>
<path d="M659.155 281H729.108V197.102H659.155V281Z" fill="#F8B1B2"/>
<path d="M707.824 262.702H719.238V231.73H707.824V262.702Z" fill="#FACACB"/>
<path d="M739.165 197.102H729.108V281H739.165V197.102Z" fill="#FACACB"/>
<path d="M659.155 206.201H739.241V204.201H659.155V206.201Z" fill="#F48889"/>
<path d="M695.195 275.964H690.133V281H695.195V275.964Z" fill="white"/>
<path d="M699.244 270.801H693.17V281H699.244V270.801Z" fill="white"/>
<path d="M720.027 280.975H718.027V232.554C718.027 228.539 714.761 225.273 710.746 225.273C706.72 225.273 703.444 228.539 703.444 232.554V270.559H701.444V232.554C701.444 227.437 705.617 223.273 710.746 223.273C715.864 223.273 720.027 227.437 720.027 232.554V280.975Z" fill="#F48889"/>
<path d="M701.293 281H717.997V262.752H701.293V281Z" fill="white"/>
<path d="M704.331 265.865H697.244V281H704.331V265.865Z" fill="white"/>
<path d="M704.444 280.958H702.444V276.317H707.507V271.23H711.581V266.169H717.982V268.169H713.581V273.23H709.507V278.317H704.444V280.958Z" fill="#CFCED5"/>
<path d="M689.226 252.229H671.715V217.557H689.226V252.229ZM673.715 250.229H687.226V219.557H673.715V250.229Z" fill="#F48889"/>
<path d="M662.643 232.586C662.927 231.347 662.952 230.083 662.694 228.844C662.462 227.606 661.946 226.445 661.224 225.413C660.501 224.38 659.547 223.529 658.463 222.884C657.379 222.239 656.166 221.826 654.928 221.697C653.663 221.542 652.399 221.697 651.212 222.058C649.999 222.445 648.916 223.064 647.961 223.916C647.032 224.767 646.258 225.774 645.742 226.935C645.226 228.096 644.968 229.335 644.968 230.599C644.968 231.27 645.045 231.915 645.174 232.56C645.587 234.34 645.587 236.172 645.174 237.953C644.762 239.733 643.936 241.384 642.775 242.778C641.02 244.894 639.911 247.448 639.575 250.183C639.24 252.892 639.653 255.679 640.814 258.156C641.975 260.633 643.833 262.749 646.129 264.22C648.451 265.691 651.135 266.491 653.87 266.491C656.605 266.491 659.314 265.742 661.637 264.272C663.959 262.801 665.817 260.737 667.004 258.259C668.19 255.782 668.655 253.021 668.319 250.312C667.984 247.577 666.9 245.023 665.171 242.881C663.985 241.462 663.159 239.81 662.72 238.03C662.282 236.25 662.256 234.392 662.669 232.612L662.643 232.586Z" fill="#B0ADB6"/>
<path d="M654.922 251.146H652.922V281H654.922V251.146Z" fill="#9F9CA6"/>
<path d="M573.722 234.977H568.19C567.909 234.977 567.636 235.069 567.413 235.238C567.189 235.407 567.027 235.645 566.95 235.915L564.243 245.478H573.722V234.977Z" fill="#EEEEEF"/>
<path d="M573.722 234.977V245.478H592.212L589.505 235.915C589.428 235.645 589.266 235.407 589.042 235.238C588.818 235.069 588.546 234.977 588.265 234.977H573.722Z" fill="#D5D4DB"/>
<path d="M582.912 243.411C586.097 242.996 588.486 241.183 588.248 239.361C588.011 237.539 585.236 236.399 582.051 236.815C578.866 237.23 576.477 239.043 576.715 240.865C576.952 242.687 579.727 243.827 582.912 243.411Z" fill="#C9C8CD"/>
<path d="M610.431 278.594V269.496C610.431 267.2 610.069 264.918 609.358 262.734L604.763 248.621C604.466 247.707 603.887 246.911 603.11 246.346C602.332 245.782 601.396 245.478 600.434 245.478H553.263C551.991 245.478 550.739 245.795 549.621 246.402C548.502 247.008 547.553 247.884 546.86 248.95L535.745 266.03V278.631L610.431 278.594Z" fill="#B6B5BC"/>
<path d="M531.311 281C534.64 281 537.339 278.301 537.339 274.972C537.339 271.643 534.64 268.944 531.311 268.944C527.982 268.944 525.283 271.643 525.283 274.972C525.283 278.301 527.982 281 531.311 281Z" fill="#7E7B88"/>
<path d="M562.502 281C565.831 281 568.53 278.301 568.53 274.972C568.53 271.643 565.831 268.944 562.502 268.944C559.173 268.944 556.474 271.643 556.474 274.972C556.474 278.301 559.173 281 562.502 281Z" fill="#7E7B88"/>
<path d="M601.568 266.03H520.995C520.509 266.03 520.043 266.223 519.699 266.567C519.355 266.91 519.162 267.377 519.162 267.863V278.594H601.568V266.03Z" fill="#B6B5BC"/>
<path d="M589.615 272.121H589.256V272.48H589.615V272.121Z" fill="#C9C8CD"/>
<path d="M570.377 281C573.185 281 575.462 278.723 575.462 275.914C575.462 273.106 573.185 270.829 570.377 270.829C567.568 270.829 565.291 273.106 565.291 275.914C565.291 278.723 567.568 281 570.377 281Z" fill="#7E7B88"/>
<path d="M601.568 281C604.376 281 606.654 278.723 606.654 275.914C606.654 273.106 604.376 270.829 601.568 270.829C598.759 270.829 596.482 273.106 596.482 275.914C596.482 278.723 598.759 281 601.568 281Z" fill="#7E7B88"/>
<path d="M546.86 248.95H599.419C599.804 248.95 600.18 249.07 600.493 249.293C600.807 249.516 601.044 249.831 601.171 250.194L604.279 259.105C604.495 259.721 604.53 260.387 604.382 261.023C604.235 261.659 603.909 262.24 603.444 262.699L601.072 265.037C600.426 265.673 599.556 266.03 598.65 266.03H535.745L546.86 248.95Z" fill="#D6D6D9"/>
<path d="M592.212 248.95H590.052V266.03H592.212V248.95Z" fill="#B6B5BC"/>
<path d="M568.281 266.03H570.441L577.488 248.95H575.329L568.281 266.03Z" fill="#B6B5BC"/>
<path d="M552.885 272.878C554.017 272.878 554.934 271.961 554.934 270.829C554.934 269.697 554.017 268.78 552.885 268.78C551.753 268.78 550.836 269.697 550.836 270.829C550.836 271.961 551.753 272.878 552.885 272.878Z" fill="white"/>
<path d="M522.251 272.878C523.383 272.878 524.3 271.961 524.3 270.829C524.3 269.697 523.383 268.78 522.251 268.78C521.119 268.78 520.202 269.697 520.202 270.829C520.202 271.961 521.119 272.878 522.251 272.878Z" fill="white"/>
<path d="M568.012 262.393H572.295C572.778 262.393 573.24 262.584 573.581 262.925C573.922 263.266 574.114 263.729 574.114 264.211C574.114 264.694 573.922 265.156 573.581 265.497C573.24 265.838 572.778 266.03 572.295 266.03H566.193V264.211C566.193 263.729 566.385 263.266 566.726 262.925C567.067 262.584 567.529 262.393 568.012 262.393Z" fill="#A3A1AA"/>
<path d="M541.947 272.736H533.312V276.869H541.947V272.736Z" fill="#EEEEEF"/>
<path d="M488.226 194.79H407.15V281H488.226V194.79Z" fill="#F8B1B2"/>
<path d="M420.033 194.79H407.15V281H420.033V194.79Z" fill="#F48889"/>
<path d="M462.566 281H479.36V236.869H462.566V281Z" fill="#FACACB"/>
<path d="M477.22 217.193C478.573 217.755 479.808 218.579 480.845 219.617C481.882 220.655 482.705 221.888 483.271 223.245C483.832 224.601 484.118 226.055 484.118 227.523V231.737H428.703V216.343H472.939C474.406 216.343 475.861 216.632 477.22 217.193Z" fill="white"/>
<path d="M439.988 227.611C439.97 224.638 438.766 221.796 436.65 219.709C434.533 217.622 431.672 216.462 428.703 216.483V231.737H439.988V227.611Z" fill="#B0ADB6"/>
<path d="M466.572 216.343C468.033 216.291 469.488 216.531 470.853 217.047C472.218 217.563 473.464 218.345 474.525 219.349C475.586 220.352 476.433 221.556 477.023 222.891C477.614 224.226 477.936 225.665 477.965 227.125V231.738H472.832V227.125C472.898 225.68 472.659 224.238 472.135 222.891C471.61 221.544 470.805 220.323 469.78 219.307C468.754 218.29 467.52 217.501 466.167 216.99C464.82 216.48 463.371 216.259 461.928 216.343H466.572Z" fill="#F48889"/>
<path d="M454.81 216.343C460.956 215.993 465.928 220.977 466.674 227.124V231.737H461.541V227.124C461.517 225.665 461.201 224.225 460.61 222.889C460.026 221.553 459.174 220.348 458.118 219.344C457.057 218.34 455.811 217.558 454.446 217.043C453.081 216.527 451.626 216.289 450.165 216.343H454.81Z" fill="#F48889"/>
<path d="M442.361 216.343C443.81 216.264 445.253 216.488 446.606 217C447.959 217.511 449.193 218.299 450.225 219.313C451.256 220.328 452.067 221.547 452.604 222.892C453.134 224.236 453.385 225.678 453.331 227.124V231.737H448.198V227.124C448.353 225.697 448.186 224.254 447.715 222.898C447.25 221.541 446.487 220.305 445.485 219.276C444.484 218.247 443.273 217.451 441.932 216.944C440.584 216.437 439.148 216.232 437.717 216.343H442.361Z" fill="#F48889"/>
<path d="M459.122 263.868H429.122V236.868H459.122V263.868ZM431.122 261.868H457.122V238.868H431.122V261.868Z" fill="#F48889"/>
<path d="M60.1353 281H130.045V219.438H60.1353V281Z" fill="#C8C8CD"/>
<path d="M140.479 194.395V225.698H37.7205L68.223 194.395H140.479Z" fill="white"/>
<path d="M36.9243 225.698H49.7011L80.2026 194.395H67.4258L36.9243 225.698Z" fill="#F48889"/>
<path d="M62.1753 225.698H74.9521L105.454 194.395H92.6768L62.1753 225.698Z" fill="#F48889"/>
<path d="M87.4263 225.698H100.203L130.705 194.395H117.929L87.4263 225.698Z" fill="#F48889"/>
<path d="M133.605 225.698H100.307L130.449 194.766L133.605 225.698Z" fill="#B0ADB6"/>
<path d="M130.045 281H154.044V194.395H130.045V281Z" fill="#B0ADB6"/>
<path d="M87.6819 225.332C87.6819 226.999 87.0193 228.599 85.8402 229.778C84.6611 230.957 83.0615 231.62 81.3941 231.62C79.7267 231.62 78.1271 230.957 76.9481 229.778C75.768 228.599 75.1064 226.999 75.1064 225.332" fill="white"/>
<path d="M62.4309 225.332C62.4319 226.158 62.2702 226.976 61.9551 227.74C61.6389 228.505 61.1756 229.199 60.5923 229.783C60.008 230.369 59.3142 230.832 58.5514 231.149C57.7876 231.465 56.9696 231.628 56.1432 231.628C55.3168 231.628 54.4977 231.465 53.735 231.149C52.9711 230.832 52.2773 230.369 51.694 229.783C51.1097 229.199 50.6464 228.505 50.3313 227.74C50.0162 226.976 49.8534 226.158 49.8555 225.332" fill="white"/>
<path d="M75.1065 225.332C75.1075 226.158 74.9458 226.976 74.6296 227.74C74.3145 228.505 73.8513 229.199 73.267 229.783C72.6837 230.369 71.9898 230.832 71.226 231.149C70.4632 231.465 69.6441 231.628 68.8177 231.628C67.9913 231.628 67.1733 231.465 66.4095 231.149C65.6468 230.832 64.9529 230.369 64.3686 229.783C63.7853 229.199 63.322 228.505 63.0069 227.74C62.6907 226.976 62.529 226.158 62.53 225.332" fill="#F9BDBC"/>
<path d="M49.7553 225.332C49.7553 226.157 49.5936 226.975 49.2774 227.738C48.9613 228.501 48.498 229.195 47.9137 229.778C47.3304 230.362 46.6376 230.826 45.8737 231.141C45.111 231.457 44.294 231.62 43.4676 231.62C42.6423 231.62 41.8242 231.457 41.0615 231.141C40.2988 230.826 39.6059 230.362 39.0216 229.778C38.4373 229.195 37.975 228.501 37.6588 227.738C37.3427 226.975 37.1799 226.157 37.1799 225.332" fill="#F9BDBC"/>
<path d="M100.258 225.332C100.258 226.157 100.096 226.975 99.7794 227.738C99.4632 228.501 98.9999 229.195 98.4166 229.778C97.8323 230.362 97.1395 230.826 96.3757 231.141C95.6129 231.457 94.796 231.62 93.9696 231.62C93.1442 231.62 92.3262 231.457 91.5634 231.141C90.8006 230.826 90.1078 230.362 89.5235 229.778C88.9402 229.195 88.4769 228.501 88.1608 227.738C87.8447 226.975 87.6819 226.157 87.6819 225.332" fill="#F9BDBC"/>
<path d="M105.003 281H122.741V236.133H105.003V281Z" fill="#EEEEEF"/>
<path d="M98.6992 269.479H66.4395V237.22H98.6992V269.479ZM68.4395 267.479H96.6992V239.22H68.4395V267.479Z" fill="#EEEEEF"/>
<path d="M381.47 232.586C381.753 231.347 381.779 230.083 381.521 228.844C381.289 227.606 380.773 226.445 380.05 225.413C379.328 224.38 378.373 223.529 377.289 222.884C376.206 222.239 374.993 221.826 373.754 221.697C372.49 221.542 371.226 221.697 370.039 222.058C368.826 222.445 367.742 223.064 366.788 223.916C365.859 224.767 365.085 225.774 364.569 226.935C364.053 228.096 363.795 229.335 363.795 230.599C363.795 231.27 363.872 231.915 364.001 232.56C364.414 234.34 364.414 236.172 364.001 237.953C363.588 239.733 362.763 241.384 361.601 242.778C359.847 244.894 358.737 247.448 358.402 250.183C358.066 252.892 358.479 255.679 359.64 258.156C360.801 260.633 362.659 262.749 364.956 264.22C367.278 265.691 369.961 266.491 372.697 266.491C375.432 266.491 378.141 265.742 380.463 264.272C382.785 262.801 384.643 260.737 385.83 258.259C387.017 255.782 387.482 253.021 387.146 250.312C386.811 247.577 385.727 245.023 383.998 242.881C382.811 241.462 381.986 239.81 381.547 238.03C381.108 236.25 381.082 234.392 381.495 232.612L381.47 232.586Z" fill="#B0ADB6"/>
<path d="M374.038 251.146H371.458V281H374.038V251.146Z" fill="#9F9CA6"/>
</g>
<defs>
<clipPath id="clip0_8962_2158">
<rect width="739" height="281" fill="white"/>
</clipPath>
</defs>
</svg>
